<svg width="140" height="27" viewBox="0 0 140 27" fill="none" xmlns="http://www.w3.org/2000/svg">
<path d="M14.624 12.716C15.32 13.172 15.908 13.712 16.388 14.336C16.892 14.936 17.288 15.68 17.576 16.568C17.888 17.552 18.044 18.548 18.044 19.556C18.068 20.54 17.888 21.464 17.504 22.328C17.144 23.168 16.556 23.912 15.74 24.56C14.948 25.184 13.904 25.628 12.608 25.892C11.912 26.06 11.096 26.192 10.16 26.288C9.224 26.384 8.384 26.432 7.64 26.432C6.704 26.456 5.732 26.456 4.724 26.432C3.74 26.432 2.78 26.336 1.844 26.144C1.436 26.024 1.136 25.82 0.944 25.532C0.776 25.22 0.656 24.872 0.584 24.488C0.488 24.272 0.44 24.056 0.44 23.84V3.392C0.44 2.72 0.572 2.204 0.836 1.844C1.124 1.46 1.496 1.184 1.952 1.016C2.408 0.823999 2.924 0.715999 3.5 0.692C4.076 0.643999 4.676 0.619998 5.3 0.619998C5.78 0.619998 6.26 0.619998 6.74 0.619998C7.244 0.595999 7.748 0.595999 8.252 0.619998C9.044 0.643998 9.86 0.715998 10.7 0.835998C11.564 0.931998 12.38 1.124 13.148 1.412C13.508 1.532 13.892 1.7 14.3 1.916C14.708 2.108 15.032 2.348 15.272 2.636C16.04 3.332 16.604 4.148 16.964 5.084C17.348 5.996 17.516 6.932 17.468 7.892C17.42 8.828 17.156 9.728 16.676 10.592C16.22 11.456 15.536 12.164 14.624 12.716ZM8.324 22.256C9.068 22.208 9.824 22.124 10.592 22.004C11.36 21.884 11.888 21.656 12.176 21.32C12.488 20.936 12.704 20.492 12.824 19.988C12.968 19.46 13.004 18.932 12.932 18.404C12.884 17.852 12.728 17.336 12.464 16.856C12.224 16.352 11.9 15.956 11.492 15.668C10.94 15.236 10.304 14.96 9.584 14.84C8.864 14.696 8.156 14.624 7.46 14.624C7.124 14.624 6.812 14.636 6.524 14.66C6.26 14.66 6.02 14.696 5.804 14.768C5.612 14.816 5.468 14.924 5.372 15.092C5.276 15.26 5.228 15.512 5.228 15.848C5.276 16.472 5.276 17.096 5.228 17.72C5.18 18.344 5.156 18.944 5.156 19.52C5.156 19.856 5.144 20.228 5.12 20.636C5.12 21.02 5.252 21.344 5.516 21.608C5.78 21.872 6.164 22.052 6.668 22.148C7.172 22.244 7.724 22.28 8.324 22.256ZM9.044 4.976C8.3 4.952 7.676 4.94 7.172 4.94C6.692 4.916 6.308 4.952 6.02 5.048C5.756 5.12 5.564 5.3 5.444 5.588C5.348 5.852 5.312 6.26 5.336 6.812C5.336 7.268 5.324 7.724 5.3 8.18C5.3 8.612 5.3 9.044 5.3 9.476C5.3 9.956 5.456 10.316 5.768 10.556C6.08 10.772 6.464 10.904 6.92 10.952C7.4 11 7.892 11 8.396 10.952C8.924 10.904 9.38 10.844 9.764 10.772C10.628 10.628 11.288 10.34 11.744 9.908C12.224 9.452 12.5 8.792 12.572 7.928C12.668 6.848 12.38 6.104 11.708 5.696C11.06 5.264 10.172 5.024 9.044 4.976ZM26.8511 1.376C28.4591 0.775999 29.9111 0.511998 31.2071 0.583999C32.5271 0.655999 33.7031 0.991999 34.7351 1.592C35.7671 2.168 36.6431 2.948 37.3631 3.932C38.1071 4.916 38.7071 6.02 39.1631 7.244C39.5231 8.156 39.7991 9.116 39.9911 10.124C40.1831 11.132 40.2911 12.14 40.3151 13.148C40.3631 14.132 40.3271 15.104 40.2071 16.064C40.1111 17.024 39.9431 17.912 39.7031 18.728C39.5591 19.28 39.3911 19.784 39.1991 20.24C39.0071 20.696 38.7791 21.152 38.5151 21.608C37.9151 22.64 37.1351 23.48 36.1751 24.128C35.2391 24.776 34.2071 25.232 33.0791 25.496C32.3111 25.688 31.5191 25.784 30.7031 25.784C29.8871 25.76 29.0831 25.652 28.2911 25.46C27.4991 25.244 26.7311 24.944 25.9871 24.56C25.2671 24.152 24.6071 23.648 24.0071 23.048C23.2631 22.328 22.6511 21.5 22.1711 20.564C21.6911 19.604 21.3191 18.608 21.0551 17.576C20.7911 16.52 20.6231 15.464 20.5511 14.408C20.4791 13.352 20.4791 12.344 20.5511 11.384C20.6231 10.496 20.7911 9.548 21.0551 8.54C21.3431 7.532 21.7511 6.56 22.2791 5.624C22.8071 4.688 23.4431 3.848 24.1871 3.104C24.9551 2.336 25.8431 1.76 26.8511 1.376ZM35.2751 16.784C35.5631 15.656 35.6831 14.384 35.6351 12.968C35.5871 11.552 35.3591 10.22 34.9511 8.972C34.6871 8.204 34.3511 7.532 33.9431 6.956C33.5591 6.356 33.0911 5.9 32.5391 5.588C32.0111 5.276 31.3871 5.12 30.6671 5.12C29.9471 5.12 29.1431 5.336 28.2551 5.768C27.7271 6.032 27.2711 6.392 26.8871 6.848C26.5271 7.304 26.2271 7.82 25.9871 8.396C25.7711 8.972 25.5911 9.572 25.4471 10.196C25.3271 10.82 25.2551 11.42 25.2311 11.996C25.1831 12.62 25.1711 13.28 25.1951 13.976C25.2191 14.648 25.2911 15.332 25.4111 16.028C25.5551 16.7 25.7471 17.348 25.9871 17.972C26.2271 18.572 26.5511 19.112 26.9591 19.592C27.5831 20.312 28.3031 20.816 29.1191 21.104C29.9591 21.368 30.7871 21.404 31.6031 21.212C32.9231 20.924 33.9311 20.048 34.6271 18.584C34.9151 18.056 35.1311 17.456 35.2751 16.784ZM49.6323 1.376C51.2403 0.775999 52.6923 0.511998 53.9883 0.583999C55.3083 0.655999 56.4843 0.991999 57.5163 1.592C58.5483 2.168 59.4243 2.948 60.1443 3.932C60.8883 4.916 61.4883 6.02 61.9443 7.244C62.3043 8.156 62.5803 9.116 62.7723 10.124C62.9643 11.132 63.0723 12.14 63.0963 13.148C63.1443 14.132 63.1083 15.104 62.9883 16.064C62.8923 17.024 62.7243 17.912 62.4843 18.728C62.3403 19.28 62.1723 19.784 61.9803 20.24C61.7883 20.696 61.5603 21.152 61.2963 21.608C60.6963 22.64 59.9163 23.48 58.9563 24.128C58.0203 24.776 56.9883 25.232 55.8603 25.496C55.0923 25.688 54.3003 25.784 53.4843 25.784C52.6683 25.76 51.8643 25.652 51.0723 25.46C50.2803 25.244 49.5123 24.944 48.7683 24.56C48.0483 24.152 47.3883 23.648 46.7883 23.048C46.0443 22.328 45.4323 21.5 44.9523 20.564C44.4723 19.604 44.1003 18.608 43.8363 17.576C43.5723 16.52 43.4043 15.464 43.3323 14.408C43.2603 13.352 43.2603 12.344 43.3323 11.384C43.4043 10.496 43.5723 9.548 43.8363 8.54C44.1243 7.532 44.5323 6.56 45.0603 5.624C45.5883 4.688 46.2243 3.848 46.9683 3.104C47.7363 2.336 48.6243 1.76 49.6323 1.376ZM58.0563 16.784C58.3443 15.656 58.4643 14.384 58.4163 12.968C58.3683 11.552 58.1403 10.22 57.7323 8.972C57.4683 8.204 57.1323 7.532 56.7243 6.956C56.3403 6.356 55.8723 5.9 55.3203 5.588C54.7923 5.276 54.1683 5.12 53.4483 5.12C52.7283 5.12 51.9243 5.336 51.0363 5.768C50.5083 6.032 50.0523 6.392 49.6683 6.848C49.3083 7.304 49.0083 7.82 48.7683 8.396C48.5523 8.972 48.3723 9.572 48.2283 10.196C48.1083 10.82 48.0363 11.42 48.0123 11.996C47.9643 12.62 47.9523 13.28 47.9763 13.976C48.0003 14.648 48.0723 15.332 48.1923 16.028C48.3363 16.7 48.5283 17.348 48.7683 17.972C49.0083 18.572 49.3323 19.112 49.7403 19.592C50.3643 20.312 51.0843 20.816 51.9003 21.104C52.7403 21.368 53.5683 21.404 54.3843 21.212C55.7043 20.924 56.7123 20.048 57.4083 18.584C57.6963 18.056 57.9123 17.456 58.0563 16.784ZM84.5554 23.408C84.7474 23.768 84.7594 24.128 84.5914 24.488C84.4714 24.872 84.2674 25.16 83.9794 25.352C83.8354 25.472 83.7034 25.58 83.5834 25.676C83.4634 25.748 83.3314 25.808 83.1874 25.856C82.9234 26 82.6114 26.048 82.2514 26C82.1074 26 81.9754 25.976 81.8554 25.928C81.7354 25.88 81.6154 25.82 81.4954 25.748C81.3754 25.676 81.2434 25.604 81.0994 25.532C80.9794 25.436 80.8594 25.34 80.7394 25.244C80.5954 25.124 80.4634 25.016 80.3434 24.92C80.2234 24.824 80.1154 24.716 80.0194 24.596C79.8994 24.476 79.7914 24.356 79.6954 24.236C79.5994 24.116 79.5034 24.008 79.4074 23.912L78.9754 23.444L72.0634 16.208L72.1714 23.444V23.768C72.1714 23.864 72.1594 23.972 72.1354 24.092C72.1114 24.188 72.0874 24.296 72.0634 24.416C71.9914 24.728 71.9074 25.004 71.8114 25.244C71.7634 25.388 71.6914 25.508 71.5954 25.604C71.5234 25.7 71.4394 25.796 71.3434 25.892C71.0794 26.132 70.7674 26.264 70.4074 26.288C70.0474 26.408 69.7114 26.444 69.3994 26.396C69.1114 26.372 68.8114 26.288 68.4994 26.144C68.2594 26 68.0434 25.76 67.8514 25.424C67.8034 25.328 67.7674 25.268 67.7434 25.244C67.7434 25.22 67.7194 25.136 67.6714 24.992C67.5274 24.752 67.4554 24.512 67.4554 24.272C67.4314 24.128 67.4074 23.996 67.3834 23.876C67.3834 23.756 67.3714 23.624 67.3474 23.48C67.3234 23.384 67.3114 23.288 67.3114 23.192C67.3114 23.096 67.3114 23 67.3114 22.904C67.3354 22.784 67.3474 22.688 67.3474 22.616C67.3474 22.52 67.3474 22.412 67.3474 22.292L67.3114 19.448L67.2754 14.156C67.2754 12.62 67.2394 10.964 67.1674 9.188C67.1434 8.324 67.1314 7.556 67.1314 6.884C67.1314 6.212 67.1434 5.456 67.1674 4.616V4.472C67.2154 4.208 67.2394 3.956 67.2394 3.716C67.2394 3.452 67.2514 3.2 67.2754 2.96C67.2754 2.48 67.3834 2 67.5994 1.52C67.7434 1.16 67.9954 0.871998 68.3554 0.655998C68.5474 0.535998 68.7274 0.463998 68.8954 0.439999C69.0874 0.391999 69.2914 0.343999 69.5074 0.295998C69.6754 0.295998 69.8314 0.307998 69.9754 0.331998C70.1434 0.355999 70.2994 0.379999 70.4434 0.403999C70.7554 0.451998 71.0434 0.583998 71.3074 0.799998C71.3794 0.871999 71.4394 0.955999 71.4874 1.052C71.5594 1.148 71.6194 1.268 71.6674 1.412C71.7874 1.604 71.8714 1.88 71.9194 2.24C71.9434 2.384 71.9554 2.528 71.9554 2.672C71.9794 2.816 71.9914 2.972 71.9914 3.14V4.616L72.0274 9.008C72.4114 8.672 72.7834 8.324 73.1434 7.964C73.5274 7.604 73.8994 7.22 74.2594 6.812C74.9074 6.14 75.5434 5.492 76.1674 4.868C76.8154 4.22 77.4634 3.584 78.1114 2.96L78.2194 2.852C78.4114 2.66 78.6034 2.48 78.7954 2.312C79.0114 2.12 79.2154 1.94 79.4074 1.772C79.7674 1.364 80.2114 1.076 80.7394 0.907999C81.0754 0.691999 81.4714 0.607999 81.9274 0.655998C82.1434 0.679999 82.3354 0.727999 82.5034 0.799998C82.6954 0.871999 82.8754 0.967999 83.0434 1.088C83.1634 1.208 83.2834 1.316 83.4034 1.412C83.5234 1.484 83.6194 1.58 83.6914 1.7C83.8834 1.868 84.0034 2.12 84.0514 2.456C84.0514 2.72 84.0034 2.96 83.9074 3.176C83.8354 3.296 83.7634 3.416 83.6914 3.536C83.6194 3.656 83.5354 3.776 83.4394 3.896C83.3194 4.04 83.2114 4.172 83.1154 4.292C83.0194 4.412 82.9114 4.532 82.7914 4.652C82.6954 4.772 82.5874 4.88 82.4674 4.976C82.3714 5.072 82.2754 5.18 82.1794 5.3L81.7114 5.768L74.9794 12.644C75.3394 13.004 75.7114 13.388 76.0954 13.796C76.5034 14.18 76.8874 14.564 77.2474 14.948C77.6074 15.308 77.9434 15.656 78.2554 15.992C78.5674 16.304 78.8314 16.568 79.0474 16.784C79.6954 17.456 80.3194 18.128 80.9194 18.8C81.5194 19.448 82.1074 20.108 82.6834 20.78L82.7914 20.888C82.9834 21.08 83.1634 21.284 83.3314 21.5C83.4994 21.692 83.6554 21.884 83.7994 22.076C84.1594 22.484 84.4114 22.928 84.5554 23.408Z" fill="white"/>
<path d="M88.7435 22.184L88.7795 19.34L88.8155 14.048C88.8395 13.28 88.8515 12.488 88.8515 11.672C88.8515 10.856 88.8515 10.016 88.8515 9.152C88.8515 8.288 88.8515 7.52 88.8515 6.848C88.8515 6.176 88.8755 5.42 88.9235 4.58V4.436C88.9475 4.196 88.9595 3.956 88.9595 3.716C88.9835 3.452 88.9955 3.188 88.9955 2.924C89.0195 2.492 89.1515 2.024 89.3915 1.52C89.5595 1.184 89.8115 0.895999 90.1475 0.655998C90.5315 0.463999 90.9035 0.368 91.2635 0.368C91.4555 0.368 91.6235 0.379999 91.7675 0.403999C91.9355 0.403999 92.0915 0.415999 92.2355 0.439999C92.5475 0.487999 92.8235 0.632 93.0635 0.872C93.2075 0.991999 93.3395 1.184 93.4595 1.448C93.5075 1.592 93.5435 1.736 93.5675 1.88C93.6155 2 93.6515 2.132 93.6755 2.276C93.6995 2.444 93.7115 2.6 93.7115 2.744C93.7355 2.888 93.7475 3.032 93.7475 3.176C93.7475 3.344 93.7355 3.5 93.7115 3.644C93.7115 3.764 93.7115 3.896 93.7115 4.04V4.652L93.4955 23.336V23.696C93.4955 23.768 93.4835 23.864 93.4595 23.984C93.4595 24.08 93.4475 24.2 93.4235 24.344C93.3755 24.464 93.3275 24.596 93.2795 24.74C93.2555 24.86 93.2195 24.992 93.1715 25.136C93.0995 25.256 93.0155 25.376 92.9195 25.496C92.8475 25.592 92.7515 25.688 92.6315 25.784C92.4395 25.976 92.1275 26.108 91.6955 26.18C91.0475 26.324 90.4355 26.264 89.8595 26C89.5715 25.808 89.3675 25.568 89.2475 25.28C89.1755 25.208 89.1395 25.136 89.1395 25.064C89.1155 25.016 89.0915 24.98 89.0675 24.956C89.0435 24.932 89.0195 24.896 88.9955 24.848C88.9475 24.728 88.9115 24.608 88.8875 24.488C88.8635 24.344 88.8515 24.2 88.8515 24.056C88.8275 23.936 88.8035 23.816 88.7795 23.696C88.7795 23.576 88.7675 23.456 88.7435 23.336C88.7195 23.144 88.7195 22.94 88.7435 22.724V22.184ZM117.301 23.264C117.277 23.672 117.217 24.104 117.121 24.56C117.049 25.016 116.821 25.388 116.437 25.676C116.149 25.916 115.825 26.06 115.465 26.108C115.105 26.156 114.745 26.132 114.385 26.036C114.049 25.964 113.725 25.844 113.413 25.676C113.101 25.484 112.849 25.256 112.657 24.992C111.841 23.984 111.085 22.952 110.389 21.896C109.717 20.816 109.033 19.736 108.337 18.656L105.313 14.084C104.905 13.436 104.473 12.716 104.017 11.924C103.561 11.108 103.093 10.352 102.613 9.656L102.505 23.408V23.732C102.505 24.116 102.433 24.5 102.289 24.884C102.169 25.244 101.953 25.556 101.641 25.82C101.401 26.012 101.089 26.144 100.705 26.216C100.105 26.336 99.6013 26.3 99.1933 26.108C98.8093 25.916 98.4973 25.652 98.2573 25.316C98.0413 24.98 97.8853 24.596 97.7893 24.164C97.7173 23.708 97.7053 23.264 97.7533 22.832V22.22L97.8253 19.412L97.8613 14.192C97.8853 13.424 97.8973 12.644 97.8973 11.852C97.8973 11.036 97.8973 10.208 97.8973 9.368C97.8733 8.336 97.8733 7.244 97.8973 6.092C97.9453 4.94 97.9933 3.86 98.0413 2.852C98.0893 2.3 98.2213 1.832 98.4373 1.448C98.5333 1.112 98.7853 0.823999 99.1933 0.583999C99.4573 0.415998 99.7933 0.307998 100.201 0.259999C100.633 0.211999 101.005 0.223999 101.317 0.295998C101.437 0.343999 101.557 0.403999 101.677 0.475998C101.797 0.523999 101.917 0.583999 102.037 0.655998C102.157 0.751998 102.265 0.847998 102.361 0.943999C102.481 1.04 102.589 1.148 102.685 1.268C102.805 1.388 102.913 1.52 103.009 1.664C103.105 1.784 103.201 1.904 103.297 2.024C103.369 2.168 103.441 2.3 103.513 2.42C103.585 2.54 103.669 2.66 103.765 2.78L104.161 3.356L112.477 16.46V14.084C112.477 13.316 112.465 12.536 112.441 11.744C112.441 10.928 112.429 10.088 112.405 9.224C112.405 8.216 112.405 7.136 112.405 5.984C112.429 4.832 112.465 3.752 112.513 2.744C112.513 2.336 112.633 1.868 112.873 1.34C112.993 1.028 113.197 0.775999 113.485 0.583999C113.773 0.391999 114.097 0.259999 114.457 0.188C114.817 0.115999 115.177 0.115999 115.537 0.188C115.897 0.259999 116.209 0.403998 116.473 0.619998C116.545 0.691999 116.617 0.775999 116.689 0.872C116.761 0.968 116.821 1.076 116.869 1.196C116.989 1.508 117.061 1.784 117.085 2.024C117.157 2.36 117.193 2.66 117.193 2.924C117.193 5.924 117.193 8.984 117.193 12.104C117.217 15.224 117.241 18.284 117.265 21.284C117.265 21.62 117.277 21.956 117.301 22.292C117.325 22.604 117.325 22.928 117.301 23.264ZM139.261 17.432C139.261 18.152 139.225 18.884 139.153 19.628C139.081 20.348 138.937 21.056 138.721 21.752C138.505 22.424 138.181 23.072 137.749 23.696C137.317 24.296 136.729 24.824 135.985 25.28C135.625 25.52 135.193 25.724 134.689 25.892C134.209 26.036 133.693 26.156 133.141 26.252C132.613 26.372 132.085 26.444 131.557 26.468C131.029 26.516 130.537 26.528 130.081 26.504C127.921 26.432 126.169 25.916 124.825 24.956C123.505 23.972 122.485 22.76 121.765 21.32C121.069 19.88 120.613 18.32 120.397 16.64C120.205 14.936 120.169 13.316 120.289 11.78C120.361 10.868 120.517 9.884 120.757 8.828C121.021 7.772 121.393 6.752 121.873 5.768C122.377 4.784 122.989 3.896 123.709 3.104C124.453 2.312 125.329 1.712 126.337 1.304C127.273 0.919999 128.293 0.679999 129.397 0.583999C130.525 0.463999 131.629 0.499999 132.709 0.692C133.813 0.883999 134.833 1.232 135.769 1.736C136.729 2.24 137.485 2.912 138.037 3.752C138.421 4.376 138.721 5.132 138.937 6.02C139.153 6.908 139.189 7.76 139.045 8.576C138.925 9.296 138.673 9.8 138.289 10.088C137.905 10.352 137.485 10.46 137.029 10.412C136.573 10.34 136.129 10.148 135.697 9.836C135.289 9.5 135.013 9.08 134.869 8.576C134.701 8.024 134.497 7.52 134.257 7.064C134.017 6.584 133.645 6.188 133.141 5.876C132.565 5.516 131.953 5.312 131.305 5.264C130.681 5.216 130.069 5.288 129.469 5.48C128.893 5.672 128.341 5.972 127.813 6.38C127.309 6.788 126.889 7.256 126.553 7.784C126.145 8.384 125.833 9.044 125.617 9.764C125.401 10.46 125.245 11.192 125.149 11.96C125.053 12.704 125.017 13.46 125.041 14.228C125.089 14.972 125.185 15.692 125.329 16.388C125.593 17.564 126.001 18.668 126.553 19.7C126.769 20.084 127.057 20.432 127.417 20.744C127.801 21.032 128.221 21.272 128.677 21.464C129.133 21.632 129.613 21.74 130.117 21.788C130.621 21.836 131.101 21.8 131.557 21.68C132.205 21.512 132.733 21.296 133.141 21.032C133.549 20.744 133.873 20.408 134.113 20.024C134.353 19.64 134.509 19.22 134.581 18.764C134.677 18.308 134.725 17.828 134.725 17.324V17.288C134.413 17.288 134.137 17.288 133.897 17.288C133.657 17.264 133.477 17.252 133.357 17.252C132.829 17.252 132.313 17.156 131.809 16.964C131.377 16.82 131.053 16.592 130.837 16.28C130.597 16.016 130.477 15.692 130.477 15.308C130.477 15.164 130.477 15.032 130.477 14.912C130.501 14.768 130.525 14.624 130.549 14.48C130.621 14.288 130.777 14.048 131.017 13.76C131.161 13.64 131.389 13.544 131.701 13.472C131.845 13.424 131.989 13.388 132.133 13.364C132.277 13.316 132.445 13.28 132.637 13.256C132.781 13.232 132.937 13.22 133.105 13.22C133.273 13.22 133.441 13.22 133.609 13.22H136.885C137.149 13.196 137.449 13.232 137.785 13.328C138.145 13.4 138.421 13.52 138.613 13.688C138.685 13.784 138.757 13.88 138.829 13.976C138.901 14.072 138.961 14.18 139.009 14.3C139.105 14.564 139.165 14.828 139.189 15.092C139.213 15.236 139.225 15.392 139.225 15.56C139.249 15.704 139.261 15.836 139.261 15.956V17.432Z" fill="#FF731D"/>
</svg>
